<?xml version="1.0" standalone="no"?>
<!DOCTYPE svg PUBLIC "-//W3C//DTD SVG 20010904//EN"
 "http://www.w3.org/TR/2001/REC-SVG-20010904/DTD/svg10.dtd">
<svg version="1.0" xmlns="http://www.w3.org/2000/svg"
 width="1821.000000pt" height="1821.000000pt" viewBox="0 0 1821.000000 1821.000000"
 preserveAspectRatio="xMidYMid meet">
<metadata>
Created by potrace 1.14, written by Peter Selinger 2001-2017
</metadata>
<g transform="translate(0.000000,1821.000000) scale(0.100000,-0.100000)"
fill="#000000" stroke="none">
<path d="M8758 18205 c-2 -1 -68 -6 -148 -10 -80 -3 -163 -8 -185 -10 -22 -2
-71 -7 -110 -10 -38 -4 -86 -8 -105 -10 -97 -9 -183 -19 -275 -31 -89 -13
-102 -14 -140 -19 -37 -5 -53 -8 -126 -20 -15 -3 -44 -7 -65 -10 -22 -3 -50
-7 -64 -10 -14 -3 -47 -9 -75 -15 -27 -5 -63 -12 -80 -15 -16 -3 -41 -7 -55
-10 -14 -3 -38 -8 -54 -10 -15 -2 -36 -7 -46 -10 -19 -6 -46 -12 -95 -20 -16
-3 -38 -8 -47 -11 -9 -3 -25 -7 -35 -9 -10 -2 -38 -8 -63 -14 -25 -7 -55 -14
-67 -16 -12 -3 -34 -10 -48 -15 -14 -5 -25 -7 -25 -5 0 2 -11 0 -25 -5 -14 -5
-38 -12 -53 -15 -64 -13 -73 -16 -99 -26 -28 -11 -44 -15 -92 -25 -13 -3 -32
-9 -43 -15 -10 -5 -18 -7 -18 -3 0 3 -7 1 -15 -6 -8 -7 -15 -10 -15 -6 0 3
-16 0 -35 -8 -20 -9 -36 -15 -38 -15 -9 2 -64 -16 -74 -24 -7 -5 -13 -7 -13
-4 0 3 -64 -17 -142 -44 -79 -28 -150 -52 -158 -54 -14 -3 -84 -29 -135 -50
-11 -5 -22 -9 -25 -10 -3 -1 -13 -5 -22 -8 -40 -15 -54 -20 -63 -23 -5 -1 -28
-10 -50 -20 -22 -10 -42 -18 -45 -19 -7 -2 -40 -16 -80 -33 -19 -8 -37 -16
-40 -17 -3 -1 -18 -7 -33 -13 -101 -42 -134 -57 -152 -69 -11 -7 -27 -13 -37
-13 -10 0 -18 -4 -18 -10 0 -5 -6 -10 -13 -10 -8 0 -47 -17 -88 -37 -41 -20
-77 -37 -80 -37 -14 -2 -225 -112 -231 -121 -4 -5 -8 -6 -8 -2 0 5 -12 0 -27
-10 -16 -10 -50 -29 -78 -43 -27 -13 -53 -29 -57 -35 -4 -5 -8 -6 -8 -2 0 5
-13 -1 -29 -12 -16 -12 -32 -21 -35 -21 -4 0 -23 -11 -44 -23 -33 -21 -79 -48
-162 -94 -14 -8 -38 -23 -55 -34 -16 -10 -38 -22 -47 -25 -10 -4 -18 -10 -18
-15 0 -5 -7 -9 -15 -9 -8 0 -15 -4 -15 -10 0 -5 -6 -10 -13 -10 -7 0 -22 -7
-32 -15 -39 -30 -96 -65 -105 -65 -6 0 -10 -4 -10 -10 0 -5 -5 -10 -10 -10
-12 0 -73 -41 -78 -52 -2 -5 -10 -8 -18 -8 -8 0 -14 -4 -14 -10 0 -5 -6 -10
-13 -10 -7 0 -23 -9 -35 -20 -12 -11 -25 -20 -29 -20 -5 0 -20 -11 -35 -25
-15 -14 -31 -25 -35 -25 -7 0 -27 -15 -80 -60 -7 -5 -17 -10 -23 -10 -5 0 -10
-4 -10 -9 0 -5 -8 -12 -17 -15 -10 -3 -31 -17 -48 -31 -16 -13 -35 -29 -41
-33 -5 -5 -29 -22 -52 -37 -23 -15 -42 -31 -42 -34 0 -4 -13 -15 -30 -24 -16
-10 -35 -23 -42 -30 -7 -7 -33 -28 -58 -47 -25 -19 -47 -37 -50 -40 -3 -3 -25
-21 -50 -40 -25 -19 -54 -42 -65 -52 -11 -9 -34 -30 -52 -45 -17 -15 -51 -44
-74 -63 -23 -19 -57 -48 -75 -65 -18 -16 -65 -59 -105 -95 -218 -195 -523
-505 -699 -710 -30 -35 -64 -74 -75 -86 -27 -30 -52 -59 -105 -124 -25 -30
-51 -61 -58 -68 -7 -8 -25 -30 -40 -50 -15 -21 -29 -39 -32 -42 -3 -3 -42 -52
-86 -110 -520 -678 -936 -1415 -1251 -2213 -69 -175 -166 -445 -198 -552 -13
-44 -38 -125 -55 -180 -17 -55 -32 -109 -35 -120 -6 -29 -54 -205 -65 -240 -5
-16 -11 -41 -14 -55 -2 -14 -16 -72 -30 -130 -14 -58 -28 -116 -30 -130 -3
-14 -5 -25 -6 -25 -1 0 -3 -11 -5 -25 -2 -14 -9 -47 -15 -75 -7 -27 -14 -63
-16 -80 -3 -16 -11 -64 -19 -105 -19 -97 -52 -309 -60 -380 -3 -30 -8 -66 -10
-80 -6 -30 -12 -84 -20 -165 -3 -33 -7 -76 -10 -95 -2 -19 -7 -69 -10 -110 -3
-41 -7 -88 -10 -105 -12 -91 -19 -353 -19 -680 0 -378 7 -571 29 -790 3 -27 7
-77 10 -110 3 -33 8 -73 10 -90 3 -27 12 -101 20 -175 1 -14 5 -43 9 -65 3
-22 8 -58 11 -80 2 -22 7 -51 10 -65 3 -14 7 -38 10 -55 13 -96 17 -115 30
-185 3 -14 8 -38 11 -55 2 -16 7 -41 9 -55 6 -31 13 -67 20 -100 3 -14 8 -36
11 -50 3 -14 7 -36 10 -50 3 -14 14 -63 25 -110 11 -47 22 -96 25 -110 3 -14
10 -43 16 -65 15 -53 16 -56 22 -82 3 -13 9 -33 12 -45 3 -13 7 -30 9 -38 2
-8 4 -15 5 -15 2 0 6 -15 15 -55 3 -14 19 -70 36 -125 16 -55 32 -107 34 -115
2 -8 4 -15 5 -15 1 0 3 -7 5 -15 3 -16 92 -285 102 -310 3 -8 7 -19 9 -25 1
-5 21 -59 43 -120 53 -142 51 -135 49 -138 -1 -1 5 -13 12 -27 8 -14 15 -27
15 -30 2 -5 21 -53 32 -80 3 -8 7 -17 8 -20 5 -14 20 -50 38 -90 12 -25 22
-50 23 -55 1 -6 18 -43 37 -83 20 -40 36 -75 36 -78 0 -11 211 -446 221 -454
4 -3 20 -33 36 -68 16 -34 33 -62 37 -62 5 0 5 -4 2 -10 -3 -5 -2 -10 2 -10 5
0 15 -16 22 -35 7 -19 17 -35 22 -35 6 0 7 -4 4 -10 -3 -5 -2 -10 2 -10 5 0
14 -12 20 -27 7 -16 24 -46 38 -68 14 -22 28 -48 31 -57 4 -10 11 -18 16 -18
5 0 7 -4 4 -9 -3 -5 1 -14 9 -21 8 -7 15 -19 15 -26 0 -8 4 -14 10 -14 5 0 12
-11 16 -25 3 -14 10 -25 15 -25 5 0 9 -4 9 -10 0 -8 32 -61 57 -95 5 -6 17
-27 27 -48 11 -20 23 -37 28 -37 4 0 8 -6 8 -13 0 -7 9 -23 20 -35 11 -12 20
-26 20 -32 0 -5 5 -10 10 -10 6 0 10 -7 10 -15 0 -8 5 -15 10 -15 6 0 10 -6
11 -12 0 -7 16 -33 35 -58 19 -25 39 -55 46 -67 6 -13 15 -23 20 -23 4 0 8 -5
8 -10 0 -6 21 -39 48 -74 26 -35 54 -74 62 -86 8 -12 20 -28 25 -34 6 -6 23
-29 39 -51 17 -22 33 -42 36 -45 3 -3 17 -21 30 -40 13 -19 27 -37 30 -40 3
-3 21 -25 40 -50 19 -25 37 -47 40 -50 3 -3 21 -25 40 -50 35 -45 51 -64 90
-110 12 -14 41 -47 64 -74 22 -26 52 -61 66 -76 14 -15 57 -63 95 -106 54 -60
250 -266 341 -358 10 -10 199 -187 288 -271 18 -17 59 -53 91 -80 32 -28 69
-60 82 -72 13 -11 42 -35 63 -53 21 -18 50 -42 63 -53 13 -12 36 -31 51 -42
15 -11 38 -30 52 -42 13 -12 41 -34 61 -50 21 -15 40 -30 43 -33 3 -3 23 -18
45 -35 22 -16 42 -32 45 -35 3 -3 39 -30 80 -60 41 -29 79 -57 85 -62 44 -36
165 -118 174 -118 6 0 11 -4 11 -8 0 -4 15 -16 33 -27 17 -10 34 -21 37 -25
12 -14 327 -214 465 -294 44 -26 87 -51 95 -56 120 -72 584 -312 730 -378 292
-130 845 -348 933 -366 7 -2 19 -6 27 -9 26 -11 338 -106 365 -111 13 -3 29
-7 33 -10 9 -6 349 -91 497 -124 101 -23 335 -69 386 -76 19 -3 91 -14 161
-26 70 -11 149 -23 175 -25 26 -3 59 -7 73 -10 39 -7 99 -14 170 -20 36 -3 72
-7 80 -10 8 -2 58 -7 110 -10 52 -3 106 -8 120 -10 217 -31 1125 -25 1460 10
25 2 77 7 115 10 39 3 82 8 96 10 14 3 50 7 80 10 30 3 65 7 79 9 14 2 50 7
80 11 30 3 69 9 85 11 17 3 41 7 55 9 14 2 40 6 58 9 46 8 81 14 132 21 24 4
47 8 50 10 3 2 26 6 50 10 39 5 155 28 215 42 20 4 44 9 80 17 11 3 52 12 90
20 39 9 81 19 95 22 14 3 48 12 76 20 28 8 62 17 75 20 40 9 54 12 54 14 0 1
9 3 20 5 11 1 83 22 160 45 77 22 147 43 155 45 8 2 16 4 18 5 1 2 5 3 10 4
46 11 220 71 231 80 8 6 15 10 15 8 2 -6 61 11 74 21 6 5 12 6 12 2 0 -4 6 -3
12 3 7 6 17 10 21 10 4 0 31 9 60 20 53 21 75 28 92 32 6 1 16 6 23 12 6 6 12
7 12 4 0 -4 10 -1 23 6 12 7 24 13 27 13 3 1 22 9 44 18 21 9 42 17 47 17 5 0
17 4 27 10 18 10 89 39 97 39 3 0 20 8 38 18 17 9 34 18 37 18 3 1 16 6 30 12
14 6 30 12 35 13 6 2 33 15 60 29 28 14 56 26 63 27 7 1 28 12 48 23 19 12 42
21 50 21 8 0 14 5 14 11 0 5 5 7 10 4 6 -3 10 -1 10 4 0 6 6 11 13 11 11 0
256 119 267 130 3 3 37 21 75 40 39 19 73 39 77 45 4 5 8 6 8 1 0 -5 8 -2 18
6 9 9 27 19 40 22 12 4 22 12 22 17 0 6 5 7 10 4 6 -3 10 -2 10 2 0 5 12 14
28 20 32 14 81 43 100 61 7 6 20 12 28 12 8 0 14 4 14 10 0 5 3 9 8 8 4 -1 21
6 37 16 17 11 46 29 65 41 19 12 53 33 75 46 22 12 42 25 45 29 3 3 22 14 43
25 20 11 37 23 37 27 0 5 5 8 10 8 12 0 73 41 78 53 2 4 10 7 18 7 8 0 14 5
14 10 0 6 6 10 13 10 7 0 23 9 35 20 12 11 24 20 28 20 4 0 26 16 50 35 23 19
47 35 53 35 6 0 11 5 11 10 0 6 6 10 13 10 6 0 28 14 47 30 19 16 40 34 47 40
7 5 17 10 23 10 5 0 10 4 10 8 0 4 12 15 28 24 15 9 37 25 49 35 48 41 60 50
104 80 25 17 59 44 76 60 31 28 49 42 107 86 16 12 40 32 53 44 13 11 43 36
65 55 23 18 52 42 64 53 12 11 48 43 79 70 140 123 193 174 410 390 235 235
285 288 402 423 37 42 72 82 78 88 5 6 21 25 35 43 14 17 39 46 55 64 17 18
40 46 52 62 35 47 65 85 100 124 18 20 33 41 33 48 0 7 6 16 13 20 7 4 33 35
58 68 24 33 48 64 52 70 48 60 137 187 137 195 0 5 4 10 9 10 6 0 16 11 23 25
7 13 47 75 89 137 82 122 148 225 195 302 16 26 34 56 39 65 31 51 137 235
165 286 18 33 42 76 53 95 37 66 214 425 266 538 297 650 559 1480 665 2102 2
14 9 52 15 85 19 102 20 109 25 145 3 19 8 49 10 65 7 41 25 171 31 220 2 22
6 56 9 75 13 95 23 188 31 305 3 44 8 91 10 105 19 120 27 929 12 1165 -14
206 -15 218 -22 300 -3 44 -8 96 -11 115 -2 19 -6 60 -9 90 -3 30 -8 69 -10
85 -2 17 -9 71 -16 120 -18 145 -19 147 -29 205 -5 30 -12 73 -15 95 -3 22 -7
51 -10 65 -3 14 -7 39 -10 55 -3 17 -8 41 -10 55 -8 40 -15 73 -20 100 -3 14
-7 36 -10 50 -3 14 -8 38 -11 54 -2 16 -6 32 -8 35 -2 3 -7 24 -10 46 -4 22
-11 58 -17 80 -13 46 -13 47 -34 135 -8 36 -17 72 -19 80 -2 8 -9 35 -16 60
-7 25 -14 56 -17 69 -2 14 -6 28 -9 33 -3 4 -7 16 -9 27 -2 10 -13 51 -26 92
-24 78 -25 82 -33 114 -2 11 -32 101 -66 200 -33 99 -62 187 -64 195 -3 8 -5
16 -6 18 -2 1 -3 5 -5 10 -1 4 -5 15 -8 25 -4 9 -10 25 -14 35 -3 9 -7 19 -7
22 -3 11 -39 107 -49 130 -6 14 -11 27 -12 30 -4 14 -18 48 -28 70 -6 14 -11
27 -12 30 -1 3 -5 14 -10 25 -23 57 -32 81 -34 90 -1 6 -11 25 -23 43 -11 17
-17 32 -14 32 4 0 -1 15 -11 33 -9 17 -18 34 -18 37 -1 6 -35 80 -73 160 -14
30 -26 57 -27 60 -2 16 -137 280 -145 285 -6 4 -8 11 -5 16 4 5 1 9 -6 9 -7 0
-9 3 -6 7 4 3 2 12 -5 20 -6 7 -25 42 -43 76 -53 103 -131 242 -156 279 -11
14 -19 31 -19 37 0 6 -5 11 -11 11 -5 0 -7 5 -4 10 3 6 2 10 -3 10 -5 0 -12 8
-16 18 -5 17 -9 23 -59 99 -15 23 -27 46 -27 52 0 6 -4 11 -10 11 -5 0 -10 5
-10 10 0 6 -8 23 -19 38 -10 15 -36 54 -57 87 -21 33 -42 62 -46 63 -5 2 -8 8
-8 13 0 9 -36 65 -50 79 -3 3 -19 25 -35 50 -17 25 -33 47 -37 48 -5 2 -8 9
-8 15 0 7 -12 26 -26 42 -14 17 -33 42 -42 58 -9 15 -20 27 -24 27 -4 0 -8 6
-8 14 0 8 -3 16 -8 18 -4 2 -25 28 -47 58 -22 30 -42 57 -45 60 -3 3 -24 30
-47 60 -45 58 -78 101 -103 130 -8 9 -26 32 -40 50 -14 18 -33 42 -43 54 -10
11 -37 43 -60 71 -55 64 -85 99 -122 140 -16 18 -61 68 -100 111 -119 133
-335 353 -481 490 -101 95 -175 163 -228 209 -32 28 -68 59 -80 70 -12 12 -45
39 -72 60 -27 22 -59 50 -72 63 -13 12 -26 22 -30 22 -4 0 -20 13 -37 28 -16
15 -70 59 -120 97 -49 38 -97 75 -105 82 -23 21 -227 168 -305 222 -38 26 -97
66 -130 88 -55 37 -180 118 -311 201 -28 18 -56 32 -62 32 -5 0 -12 4 -14 9
-9 24 -476 275 -808 434 -567 272 -1352 538 -1952 661 -235 48 -405 80 -497
92 -34 4 -65 10 -107 18 -11 2 -45 7 -75 10 -30 3 -63 8 -74 10 -11 2 -49 7
-85 11 -114 12 -144 15 -180 19 -42 6 -137 14 -245 22 -44 3 -105 8 -135 10
-64 5 -867 13 -872 9z"/>
</g>
</svg>
